<svg width="1000" height="1008" viewBox="0 0 1000 1008" fill="none" xmlns="http://www.w3.org/2000/svg">
<g clip-path="url(#clip0_59_1129)">
<path d="M1000 0H0V1008H1000V0Z" fill="#FDFAF3"/>
<path d="M708 907C780.902 907 840 847.902 840 775C840 702.098 780.902 643 708 643C635.098 643 576 702.098 576 775C576 847.902 635.098 907 708 907Z" stroke="#BA7517" stroke-width="0.5"/>
<path d="M36 856C58.0914 856 76 838.091 76 816C76 793.909 58.0914 776 36 776C13.9086 776 -4 793.909 -4 816C-4 838.091 13.9086 856 36 856Z" stroke="#BA7517" stroke-width="0.5"/>
<path d="M947 640C970.196 640 989 621.196 989 598C989 574.804 970.196 556 947 556C923.804 556 905 574.804 905 598C905 621.196 923.804 640 947 640Z" stroke="#BA7517" stroke-width="0.5"/>
<path d="M371 275C421.81 275 463 233.81 463 183C463 132.19 421.81 91 371 91C320.19 91 279 132.19 279 183C279 233.81 320.19 275 371 275Z" stroke="#BA7517" stroke-width="0.5"/>
<path d="M837 353C867.376 353 892 328.376 892 298C892 267.624 867.376 243 837 243C806.624 243 782 267.624 782 298C782 328.376 806.624 353 837 353Z" stroke="#BA7517" stroke-width="0.5"/>
<path d="M234 718C297.513 718 349 666.513 349 603C349 539.487 297.513 488 234 488C170.487 488 119 539.487 119 603C119 666.513 170.487 718 234 718Z" stroke="#BA7517" stroke-width="0.5"/>
<path d="M558 616C615.99 616 663 568.99 663 511C663 453.01 615.99 406 558 406C500.01 406 453 453.01 453 511C453 568.99 500.01 616 558 616Z" stroke="#BA7517" stroke-width="0.5"/>
<path d="M23 436C73.8102 436 115 394.81 115 344C115 293.19 73.8102 252 23 252C-27.8102 252 -69 293.19 -69 344C-69 394.81 -27.8102 436 23 436Z" stroke="#BA7517" stroke-width="0.5"/>
<path d="M904 130C961.99 130 1009 82.9899 1009 25C1009 -32.9899 961.99 -80 904 -80C846.01 -80 799 -32.9899 799 25C799 82.9899 846.01 130 904 130Z" stroke="#BA7517" stroke-width="0.5"/>
<path d="M386 1027C416.928 1027 442 1001.93 442 971C442 940.072 416.928 915 386 915C355.072 915 330 940.072 330 971C330 1001.93 355.072 1027 386 1027Z" stroke="#BA7517" stroke-width="0.5"/>
<path d="M93 57C114.539 57 132 39.5391 132 18C132 -3.5391 114.539 -21 93 -21C71.4609 -21 54 -3.5391 54 18C54 39.5391 71.4609 57 93 57Z" stroke="#BA7517" stroke-width="0.5"/>
<path d="M950 1006C996.944 1006 1035 967.944 1035 921C1035 874.056 996.944 836 950 836C903.056 836 865 874.056 865 921C865 967.944 903.056 1006 950 1006Z" stroke="#BA7517" stroke-width="0.5"/>
</g>
<defs>
<clipPath id="clip0_59_1129">
<rect width="1000" height="1008" fill="white"/>
</clipPath>
</defs>
</svg>
