<svg width="1000" height="515" viewBox="0 0 1000 515" fill="none" xmlns="http://www.w3.org/2000/svg">
<g clip-path="url(#clip0_59_948)">
<path d="M1000 0H0V515H1000V0Z" fill="#FDFAF3"/>
<path d="M362.223 545.042C428.497 545.042 482.223 503.538 482.223 452.342C482.223 401.145 428.497 359.642 362.223 359.642C295.948 359.642 242.223 401.145 242.223 452.342C242.223 503.538 295.948 545.042 362.223 545.042Z" stroke="#BA7517" stroke-width="0.5"/>
<path d="M756.667 174.242C776.917 174.242 793.333 161.56 793.333 145.917C793.333 130.273 776.917 117.592 756.667 117.592C736.416 117.592 720 130.273 720 145.917C720 161.56 736.416 174.242 756.667 174.242Z" stroke="#BA7517" stroke-width="0.5"/>
<path d="M755.555 408.567C800.352 408.567 836.667 380.514 836.667 345.908C836.667 311.303 800.352 283.25 755.555 283.25C710.759 283.25 674.444 311.303 674.444 345.908C674.444 380.514 710.759 408.567 755.555 408.567Z" stroke="#BA7517" stroke-width="0.5"/>
<path d="M260 184.542C287.001 184.542 308.889 167.633 308.889 146.775C308.889 125.917 287.001 109.008 260 109.008C233 109.008 211.111 125.917 211.111 146.775C211.111 167.633 233 184.542 260 184.542Z" stroke="#BA7517" stroke-width="0.5"/>
<path d="M964.445 554.484C1018.45 554.484 1062.22 520.666 1062.22 478.95C1062.22 437.234 1018.45 403.417 964.445 403.417C910.444 403.417 866.667 437.234 866.667 478.95C866.667 520.666 910.444 554.484 964.445 554.484Z" stroke="#BA7517" stroke-width="0.5"/>
<path d="M60.0008 484.1C99.2743 484.1 131.112 459.506 131.112 429.167C131.112 398.828 99.2743 374.233 60.0008 374.233C20.7272 374.233 -11.1104 398.828 -11.1104 429.167C-11.1104 459.506 20.7272 484.1 60.0008 484.1Z" stroke="#BA7517" stroke-width="0.5"/>
<path d="M7.77811 286.684C47.0517 286.684 78.8892 262.089 78.8892 231.75C78.8892 201.411 47.0517 176.817 7.77811 176.817C-31.4955 176.817 -63.333 201.411 -63.333 231.75C-63.333 262.089 -31.4955 286.684 7.77811 286.684Z" stroke="#BA7517" stroke-width="0.5"/>
<path d="M500.001 310.717C545.411 310.717 582.223 282.28 582.223 247.2C582.223 212.121 545.411 183.684 500.001 183.684C454.59 183.684 417.778 212.121 417.778 247.2C417.778 282.28 454.59 310.717 500.001 310.717Z" stroke="#BA7517" stroke-width="0.5"/>
<path d="M71.1111 87.5502C126.953 87.5502 172.222 52.5799 172.222 9.44183C172.222 -33.6962 126.953 -68.6665 71.1111 -68.6665C15.269 -68.6665 -30 -33.6962 -30 9.44183C-30 52.5799 15.269 87.5502 71.1111 87.5502Z" stroke="#BA7517" stroke-width="0.5"/>
<path d="M450 75.5334C490.501 75.5334 523.334 50.1703 523.334 18.8834C523.334 -12.4035 490.501 -37.7666 450 -37.7666C409.499 -37.7666 376.667 -12.4035 376.667 18.8834C376.667 50.1703 409.499 75.5334 450 75.5334Z" stroke="#BA7517" stroke-width="0.5"/>
<path d="M968.889 146.775C1033.94 146.775 1086.67 106.041 1086.67 55.7919C1086.67 5.54322 1033.94 -35.1914 968.889 -35.1914C903.842 -35.1914 851.111 5.54322 851.111 55.7919C851.111 106.041 903.842 146.775 968.889 146.775Z" stroke="#BA7517" stroke-width="0.5"/>
</g>
<defs>
<clipPath id="clip0_59_948">
<rect width="1000" height="515" fill="white"/>
</clipPath>
</defs>
</svg>
