<svg width="1000" height="515" viewBox="0 0 1000 515" fill="none" xmlns="http://www.w3.org/2000/svg">
<g clip-path="url(#clip0_59_924)">
<path d="M1000 0H0V515H1000V0Z" fill="#0E0B1A"/>
<path d="M500 300.932L596.555 344.02V430.197L500 473.285L403.444 430.197V344.02L500 300.932Z" stroke="#AFA9EC" stroke-width="0.5"/>
<path d="M114.445 426.592L196.223 463.071V536.029L114.445 572.508L32.667 536.029V463.071L114.445 426.592Z" stroke="#AFA9EC" stroke-width="0.5"/>
<path d="M105.556 217.159L164.222 243.338V295.696L105.556 321.875L46.8892 295.696V243.338L105.556 217.159Z" stroke="#AFA9EC" stroke-width="0.5"/>
<path d="M758.889 127.034L848.333 166.946V246.771L758.889 286.684L669.444 246.771V166.946L758.889 127.034Z" stroke="#AFA9EC" stroke-width="0.5"/>
<path d="M374.444 163.942L449.444 197.417V264.367L374.444 297.842L299.444 264.367V197.417L374.444 163.942Z" stroke="#AFA9EC" stroke-width="0.5"/>
<path d="M61.1112 10.3003L147.667 48.9253V126.175L61.1112 164.8L-25.4443 126.175V48.9253L61.1112 10.3003Z" stroke="#AFA9EC" stroke-width="0.5"/>
<path d="M851.111 -36.9082L942.556 3.86263V85.4043L851.111 126.175L759.667 85.4043V3.86263L851.111 -36.9082Z" stroke="#AFA9EC" stroke-width="0.5"/>
<path d="M824.444 434.317L911 472.942V550.192L824.444 588.817L737.889 550.192V472.942L824.444 434.317Z" stroke="#AFA9EC" stroke-width="0.5"/>
<path d="M503.334 -42.9165L577.445 -9.87067V56.221L503.334 89.2668L429.223 56.221V-9.87067L503.334 -42.9165Z" stroke="#AFA9EC" stroke-width="0.5"/>
<path d="M961.111 257.5L1046.78 295.696V372.088L961.111 410.283L875.444 372.088V295.696L961.111 257.5Z" stroke="#AFA9EC" stroke-width="0.5"/>
</g>
<defs>
<clipPath id="clip0_59_924">
<rect width="1000" height="515" fill="white"/>
</clipPath>
</defs>
</svg>
