<svg width="1000" height="1008" viewBox="0 0 1000 1008" fill="none" xmlns="http://www.w3.org/2000/svg">
<g clip-path="url(#clip0_59_1086)">
<path d="M1000 0H0V1008H1000V0Z" fill="#0E0B1A"/>
<path d="M394 118.8L512.8 187.4V324.6L394 393.2L275.2 324.6V187.4L394 118.8Z" stroke="#AFA9EC" stroke-width="0.5"/>
<path d="M313 572L369.3 604.5V669.5L313 702L256.7 669.5V604.5L313 572Z" stroke="#AFA9EC" stroke-width="0.5"/>
<path d="M162 852L232.1 892.5V973.5L162 1014L91.9004 973.5V892.5L162 852Z" stroke="#AFA9EC" stroke-width="0.5"/>
<path d="M889.001 274L986.901 330.5V443.5L889.001 500L791.101 443.5V330.5L889.001 274Z" stroke="#AFA9EC" stroke-width="0.5"/>
<path d="M38.9998 124L124.7 173.5V272.5L38.9998 322L-46.7002 272.5V173.5L38.9998 124Z" stroke="#AFA9EC" stroke-width="0.5"/>
<path d="M806 622L870.1 659V733L806 770L741.9 733V659L806 622Z" stroke="#AFA9EC" stroke-width="0.5"/>
<path d="M614 862L680.7 900.5V977.5L614 1016L547.3 977.5V900.5L614 862Z" stroke="#AFA9EC" stroke-width="0.5"/>
<path d="M734 -68L845.7 -3.5V125.5L734 190L622.3 125.5V-3.5L734 -68Z" stroke="#AFA9EC" stroke-width="0.5"/>
<path d="M6.0002 527L110.8 587.5V708.5L6.0002 769L-98.7998 708.5V587.5L6.0002 527Z" stroke="#AFA9EC" stroke-width="0.5"/>
<path d="M951.001 829L1061.9 893V1021L951.001 1085L840.101 1021V893L951.001 829Z" stroke="#AFA9EC" stroke-width="0.5"/>
<path d="M609 383L656.6 410.5V465.5L609 493L561.4 465.5V410.5L609 383Z" stroke="#AFA9EC" stroke-width="0.5"/>
<path d="M239 -83L336 -27V85L239 141L142 85V-27L239 -83Z" stroke="#AFA9EC" stroke-width="0.5"/>
</g>
<defs>
<clipPath id="clip0_59_1086">
<rect width="1000" height="1008" fill="white"/>
</clipPath>
</defs>
</svg>
