<svg width="29" height="29" viewBox="0 0 29 29" fill="none" xmlns="http://www.w3.org/2000/svg">
<rect x="0.5" y="0.5" width="28" height="28" rx="14" stroke="#AFA9EC"/>
<path d="M19.5 14.5C19.5 15.8261 18.9732 17.0979 18.0355 18.0355C17.0979 18.9732 15.8261 19.5 14.5 19.5C13.1739 19.5 11.9021 18.9732 10.9645 18.0355C10.0268 17.0979 9.5 15.8261 9.5 14.5C9.5 13.1739 10.0268 11.9021 10.9645 10.9645C11.9021 10.0268 13.1739 9.5 14.5 9.5C15.8261 9.5 17.0979 10.0268 18.0355 10.9645C18.9732 11.9021 19.5 13.1739 19.5 14.5Z" fill="#AFA9EC"/>
<path fill-rule="evenodd" clip-rule="evenodd" d="M14.5 3.75C14.6989 3.75 14.8897 3.82902 15.0303 3.96967C15.171 4.11032 15.25 4.30109 15.25 4.5V6.5C15.25 6.69891 15.171 6.88968 15.0303 7.03033C14.8897 7.17098 14.6989 7.25 14.5 7.25C14.3011 7.25 14.1103 7.17098 13.9697 7.03033C13.829 6.88968 13.75 6.69891 13.75 6.5V4.5C13.75 4.30109 13.829 4.11032 13.9697 3.96967C14.1103 3.82902 14.3011 3.75 14.5 3.75ZM3.75 14.5C3.75 14.3011 3.82902 14.1103 3.96967 13.9697C4.11032 13.829 4.30109 13.75 4.5 13.75H6.5C6.69891 13.75 6.88968 13.829 7.03033 13.9697C7.17098 14.1103 7.25 14.3011 7.25 14.5C7.25 14.6989 7.17098 14.8897 7.03033 15.0303C6.88968 15.171 6.69891 15.25 6.5 15.25H4.5C4.30109 15.25 4.11032 15.171 3.96967 15.0303C3.82902 14.8897 3.75 14.6989 3.75 14.5ZM21.75 14.5C21.75 14.3011 21.829 14.1103 21.9697 13.9697C22.1103 13.829 22.3011 13.75 22.5 13.75H24.5C24.6989 13.75 24.8897 13.829 25.0303 13.9697C25.171 14.1103 25.25 14.3011 25.25 14.5C25.25 14.6989 25.171 14.8897 25.0303 15.0303C24.8897 15.171 24.6989 15.25 24.5 15.25H22.5C22.3011 15.25 22.1103 15.171 21.9697 15.0303C21.829 14.8897 21.75 14.6989 21.75 14.5ZM14.5 21.75C14.6989 21.75 14.8897 21.829 15.0303 21.9697C15.171 22.1103 15.25 22.3011 15.25 22.5V24.5C15.25 24.6989 15.171 24.8897 15.0303 25.0303C14.8897 25.171 14.6989 25.25 14.5 25.25C14.3011 25.25 14.1103 25.171 13.9697 25.0303C13.829 24.8897 13.75 24.6989 13.75 24.5V22.5C13.75 22.3011 13.829 22.1103 13.9697 21.9697C14.1103 21.829 14.3011 21.75 14.5 21.75Z" fill="#AFA9EC"/>
<path opacity="0.5" d="M6.17008 6.21611C6.30421 6.0694 6.49108 5.98195 6.68965 5.97295C6.88822 5.96395 7.08224 6.03414 7.22908 6.16811L9.45008 8.20011C9.5938 8.33508 9.67859 8.52123 9.68609 8.71825C9.6936 8.91527 9.62322 9.10732 9.49019 9.25285C9.35715 9.39837 9.17217 9.48565 8.97527 9.4958C8.77836 9.50596 8.58538 9.43817 8.43808 9.30711L6.21708 7.27511C6.14429 7.20868 6.08531 7.12856 6.0435 7.03932C6.00169 6.95009 5.97788 6.85349 5.97342 6.75505C5.96897 6.65661 5.98395 6.55826 6.01752 6.46561C6.0511 6.37296 6.1026 6.28784 6.16908 6.21511M22.8321 6.21611C22.8986 6.28878 22.9502 6.37385 22.9839 6.46646C23.0175 6.55907 23.0326 6.6574 23.0282 6.75584C23.0239 6.85428 23.0001 6.9509 22.9584 7.04017C22.9167 7.12944 22.8578 7.20961 22.7851 7.27611L20.5621 9.30611C20.4902 9.37654 20.4049 9.43179 20.3112 9.46855C20.2175 9.50532 20.1173 9.52285 20.0167 9.5201C19.9161 9.51736 19.8171 9.49439 19.7256 9.45257C19.634 9.41075 19.5518 9.35093 19.4839 9.27668C19.4159 9.20242 19.3636 9.11526 19.3301 9.02037C19.2965 8.92548 19.2824 8.8248 19.2886 8.72435C19.2948 8.62389 19.3211 8.52571 19.366 8.43564C19.411 8.34558 19.4736 8.26547 19.5501 8.20011L21.7721 6.16811C21.8448 6.10162 21.9299 6.05012 22.0226 6.01655C22.1152 5.98298 22.2136 5.96799 22.312 5.97245C22.4105 5.97691 22.5071 6.00072 22.5963 6.04253C22.6855 6.08433 22.7657 6.14332 22.8321 6.21611ZM19.5261 19.5251C19.6667 19.3847 19.8573 19.3058 20.0561 19.3058C20.2548 19.3058 20.4455 19.3847 20.5861 19.5251L22.8091 21.7471C22.8807 21.8163 22.9378 21.8991 22.977 21.9906C23.0163 22.0822 23.0369 22.1806 23.0378 22.2802C23.0386 22.3797 23.0196 22.4785 22.9818 22.5707C22.9441 22.6628 22.8883 22.7465 22.8179 22.8169C22.7474 22.8873 22.6637 22.9429 22.5715 22.9806C22.4793 23.0183 22.3805 23.0372 22.2809 23.0363C22.1813 23.0354 22.0829 23.0146 21.9914 22.9753C21.9 22.9359 21.8172 22.8788 21.7481 22.8071L19.5261 20.5851C19.3856 20.4445 19.3067 20.2539 19.3067 20.0551C19.3067 19.8564 19.3856 19.6657 19.5261 19.5251ZM9.47508 19.5251C9.61553 19.6657 9.69442 19.8564 9.69442 20.0551C9.69442 20.2539 9.61553 20.4445 9.47508 20.5851L7.25308 22.8081C7.11091 22.9406 6.92286 23.0127 6.72856 23.0093C6.53426 23.0059 6.34887 22.9271 6.21146 22.7897C6.07405 22.6523 5.99534 22.4669 5.99191 22.2726C5.98848 22.0783 6.0606 21.8903 6.19308 21.7481L8.41508 19.5251C8.55571 19.3847 8.74633 19.3058 8.94508 19.3058C9.14383 19.3058 9.33446 19.3847 9.47508 19.5251Z" fill="#AFA9EC"/>
</svg>
