<svg width="29" height="29" viewBox="0 0 29 29" fill="none" xmlns="http://www.w3.org/2000/svg">
<rect x="0.5" y="0.5" width="28" height="28" rx="14" stroke="#BA7517"/>
<path opacity="0.5" fill-rule="evenodd" clip-rule="evenodd" d="M24.5 14.4999C24.5 20.0229 20.023 24.4999 14.5 24.4999C13.3691 24.5011 12.2462 24.3104 11.179 23.9359C10.7298 22.8461 10.4991 21.6787 10.5 20.4999C10.4973 18.3661 11.2553 16.3011 12.638 14.6759C13.2352 15.5467 14.0355 16.259 14.9698 16.751C15.904 17.2431 16.9441 17.5001 18 17.4999C19.1201 17.5001 20.2212 17.2108 21.1966 16.6601C22.172 16.1094 22.9885 15.3161 23.567 14.3569C23.807 13.9609 24.5 14.0369 24.5 14.4999Z" fill="#BA7517"/>
<path d="M4.5 14.5C4.5 18.859 7.289 22.566 11.179 23.935C10.73 22.8455 10.4993 21.6784 10.5 20.5C10.5 18.279 11.305 16.246 12.638 14.676C11.8946 13.5944 11.4977 12.3124 11.5 11C11.4998 9.87991 11.7891 8.77877 12.3398 7.80339C12.8905 6.82801 13.6839 6.01149 14.643 5.433C15.04 5.193 14.963 4.5 14.5 4.5C8.977 4.5 4.5 8.977 4.5 14.5Z" fill="#BA7517"/>
</svg>
